#!OML:ASF H:\LiuWeirdWalks\Patient Classification 1\Patient 1\Session 1\male.ASF
:FULLY-SPECIFIED
:DEGREES
370
root 1.5437 17.7298 -18.1639 6.23704 13.647 6.93917
lowerback 11.9452 -0.353492 2.11424
upperback 2.68671 0.123787 6.43053
thorax -3.89438 0.0780903 5.55947
lowerneck -20.0696 -2.18724 7.10083
upperneck 11.4319 -2.57983 -14.7764
head 6.48415 -2.27256 -6.33181
rclavicle 7.95139e-016 6.36111e-014
rhumerus -27.1659 -32.9043 -15.7113
rradius 30.1065
rwrist -5.27154
rhand -25.4445 -1.18841
rfingers 7.12502
rthumb 1.08227 -31.1654
lclavicle 7.95139e-016 6.36111e-014
lhumerus -18.3746 32.6589 18.38
lradius 34.2452
lwrist 10.3115
lhand -22.3763 1.42973
lfingers 7.12502
lthumb 4.04538 31.3711
rfemur -26.6751 -4.10154 -0.470595
rtibia 26.9882
rfoot -0.173997 -19.0599
rtoes -11.132
lfemur 4.40165 -1.54577 -23.1131
ltibia 22.1678
lfoot -10.7494 5.5008
ltoes -22.6706
371
root 1.51781 17.7353 -18.0677 6.31777 13.5775 7.14086
lowerback 11.8873 -0.34087 2.54055
upperback 2.6377 0.20996 6.74999
thorax -3.92113 0.119577 5.64646
lowerneck -20.0941 -2.13974 7.09685
upperneck 11.3231 -2.42101 -15.4649
head 6.47049 -2.2563 -6.54897
rclavicle -1.11319e-014 -1.27222e-014
rhumerus -27.1466 -33.173 -16.2949
rradius 30.0952
rwrist -5.11677
rhand -25.4822 -1.08348
rfingers 7.12502
rthumb 1.04586 -31.0607
lclavicle -1.11319e-014 -1.27222e-014
lhumerus -18.4761 32.6053 18.3036
lradius 34.3074
lwrist 10.397
lhand -22.3787 1.42639
lfingers 7.12502
lthumb 4.0431 31.3678
rfemur -26.7349 -4.09343 -0.524881
rtibia 27.4585
rfoot 0.09032 -18.9077
rtoes -10.6057
lfemur 4.65705 -1.63959 -23.1805
ltibia 22.08
lfoot -10.265 5.36239
ltoes -22.8406
372
root 1.49121 17.7415 -17.9703 6.40902 13.4725 7.3635
lowerback 11.813 -0.315662 2.92792
upperback 2.59912 0.305639 7.06655
thorax -3.92854 0.165878 5.75153
lowerneck -20.0985 -2.06875 7.14522
upperneck 11.1742 -2.24528 -16.1809
head 6.44388 -2.22963 -6.78168
rclavicle 4.77083e-014 7.63333e-014
rhumerus -27.1007 -33.4647 -16.8969
rradius 30.0646
rwrist -4.90613
rhand -25.4932 -0.948035
rfingers 7.12502
rthumb 1.03522 -30.9253
lclavicle 4.77083e-014 7.63333e-014
lhumerus -18.5603 32.565 18.2433
lradius 34.3422
lwrist 10.4889
lhand -22.3547 1.38318
lfingers 7.12502
lthumb 4.06621 31.3241
rfemur -26.8195 -4.14726 -0.56398
rtibia 27.9539
rfoot 0.33797 -18.7188
rtoes -10.0036
lfemur 4.90654 -1.68751 -23.2698
ltibia 21.9895
lfoot -9.75219 5.20031
ltoes -23.0093
373
root 1.46298 17.7492 -17.8723 6.49794 13.3428 7.58633
lowerback 11.7534 -0.284398 3.27881
upperback 2.55601 0.406211 7.38724
thorax -3.94936 0.215038 5.88257
lowerneck -20.1168 -1.97648 7.21877
upperneck 11.0806 -2.04389 -16.89
head 6.44228 -2.18967 -7.01812
rclavicle 1.74931e-014 -5.08889e-014
rhumerus -27.0353 -33.7376 -17.5207
rradius 30.0238
rwrist -4.69945
rhand -25.443 -0.767138
rfingers 7.12502
rthumb 1.08375 -30.7441
lclavicle 1.74931e-014 -5.08889e-014
lhumerus -18.6436 32.4935 18.1858
lradius 34.3691
lwrist 10.6095
lhand -22.3276 1.36311
lfingers 7.12502
lthumb 4.09242 31.3035
rfemur -26.9153 -4.20284 -0.575012
rtibia 28.4713
rfoot 0.518844 -18.5359
rtoes -9.29106
lfemur 5.1588 -1.70689 -23.354
ltibia 21.8855
lfoot -9.20344 5.00845
ltoes -23.1718
374
root 1.43359 17.7578 -17.7732 6.58245 13.1937 7.84123
lowerback 11.6975 -0.246827 3.5704
upperback 2.51817 0.507057 7.69836
thorax -3.96712 0.264805 6.03809
lowerneck -20.0761 -1.89161 7.28713
upperneck 10.9705 -1.8591 -17.5528
head 6.42553 -2.15056 -7.23764
rclavicle 3.65764e-014 4.77083e-014
rhumerus -26.9506 -33.9754 -18.1884
rradius 29.986
rwrist -4.54426
rhand -25.3984 -0.610774
rfingers 7.12502
rthumb 1.12679 -30.5875
lclavicle 3.65764e-014 4.77083e-014
lhumerus -18.7011 32.4296 18.1309
lradius 34.3689
lwrist 10.7074
lhand -22.2928 1.31456
lfingers 7.12502
lthumb 4.126 31.2544
rfemur -27.0065 -4.2707 -0.598918
rtibia 29.0043
rfoot 0.632038 -18.343
rtoes -8.52505
lfemur 5.4336 -1.7237 -23.4741
ltibia 21.7594
lfoot -8.62407 4.80268
ltoes -23.3264
375
root 1.40281 17.7674 -17.6728 6.64991 13.0358 8.11574
lowerback 11.6654 -0.206828 3.81847
upperback 2.48334 0.607169 8.00139
thorax -3.99539 0.314636 6.21124
lowerneck -20.0327 -1.80069 7.37545
upperneck 10.8902 -1.6697 -18.2085
head 6.42004 -2.10757 -7.46031
rclavicle 7.95139e-015 0
rhumerus -26.8546 -34.1234 -18.9101
rradius 29.9688
rwrist -4.48299
rhand -25.3376 -0.506215
rfingers 7.12502
rthumb 1.18547 -30.4827
lclavicle 7.95139e-015 0
lhumerus -18.7326 32.3164 18.0878
lradius 34.3714
lwrist 10.8257
lhand -22.2866 1.31238
lfingers 7.12502
lthumb 4.13199 31.2521
rfemur -27.0702 -4.30457 -0.636228
rtibia 29.5385
rfoot 0.686624 -18.1896
rtoes -7.68963
lfemur 5.7389 -1.77416 -23.6228
ltibia 21.6154
lfoot -8.00992 4.60798
ltoes -23.4758
376
root 1.37059 17.7781 -17.5722 6.70414 12.8652 8.38638
lowerback 11.6624 -0.16501 4.04167
upperback 2.43856 0.710245 8.3008
thorax -4.05112 0.366292 6.39595
lowerneck -19.9374 -1.71539 7.48186
upperneck 10.7991 -1.49522 -18.8538
head 6.40171 -2.06682 -7.68289
rclavicle -2.62396e-014 -6.99722e-014
rhumerus -26.7455 -34.2402 -19.6713
rradius 29.9401
rwrist -4.43557
rhand -25.3063 -0.443629
rfingers 7.12502
rthumb 1.21574 -30.4199
lclavicle -2.62396e-014 -6.99722e-014
lhumerus -18.7445 32.1869 18.0367
lradius 34.3611
lwrist 10.9326
lhand -22.2513 1.28013
lfingers 7.12502
lthumb 4.16612 31.2191
rfemur -27.1151 -4.27337 -0.672388
rtibia 30.0585
rfoot 0.683982 -18.1107
rtoes -6.82224
lfemur 6.05776 -1.86477 -23.7792
ltibia 21.4605
lfoot -7.3586 4.439
ltoes -23.5881
377
root 1.33687 17.7899 -17.4713 6.74604 12.7028 8.63676
lowerback 11.6691 -0.128073 4.26904
upperback 2.39426 0.808842 8.601
thorax -4.11182 0.415737 6.58097
lowerneck -19.8137 -1.62746 7.60725
upperneck 10.6891 -1.32546 -19.4955
head 6.37345 -2.0244 -7.90755
rclavicle 0 7.31528e-014
rhumerus -26.6212 -34.3217 -20.478
rradius 29.9214
rwrist -4.47052
rhand -25.3155 -0.481625
rfingers 7.12502
rthumb 1.20681 -30.458
lclavicle 0 7.31528e-014
lhumerus -18.7251 32.0573 17.9913
lradius 34.3459
lwrist 11.0225
lhand -22.2601 1.2842
lfingers 7.12502
lthumb 4.15757 31.2234
rfemur -27.1253 -4.16691 -0.697097
rtibia 30.5477
rfoot 0.638674 -18.1299
rtoes -5.95203
lfemur 6.37529 -1.9992 -23.9216
ltibia 21.3169
lfoot -6.67901 4.29688
ltoes -23.6613
378
root 1.30174 17.8033 -17.3707 6.78064 12.5371 8.84436
lowerback 11.6909 -0.0924595 4.51503
upperback 2.34016 0.91153 8.90872
thorax -4.19201 0.467139 6.76448
lowerneck -19.6222 -1.55369 7.72344
upperneck 10.5464 -1.17889 -20.1214
head 6.32144 -1.98699 -8.12444
rclavicle -6.36111e-015 4.45278e-014
rhumerus -26.4913 -34.4379 -21.2962
rradius 29.8771
rwrist -4.41826
rhand -25.3104 -0.529212
rfingers 7.12502
rthumb 1.21175 -30.5055
lclavicle -6.36111e-015 4.45278e-014
lhumerus -18.6878 31.9476 17.9408
lradius 34.325
lwrist 11.0565
lhand -22.2635 1.31034
lfingers 7.12502
lthumb 4.15433 31.2496
rfemur -27.1112 -3.97524 -0.688865
rtibia 30.9967
rfoot 0.546407 -18.2344
rtoes -5.12921
lfemur 6.66274 -2.1136 -24.0125
ltibia 21.2062
lfoot -5.98884 4.1383
ltoes -23.6974
379
root 1.26614 17.8178 -17.2708 6.82641 12.3725 9.02085
lowerback 11.7025 -0.0615199 4.78701
upperback 2.28281 1.01126 9.21663
thorax -4.26978 0.516731 6.9347
lowerneck -19.3723 -1.49691 7.82429
upperneck 10.3526 -1.06279 -20.7238
head 6.24009 -1.95712 -8.32959
rclavicle 3.18055e-014 0
rhumerus -26.35 -34.5836 -22.1442
rradius 29.8357
rwrist -4.38835
rhand -25.3153 -0.581137
rfingers 7.12502
rthumb 1.20701 -30.5575
lclavicle 3.18055e-014 0
lhumerus -18.6302 31.881 17.8851
lradius 34.305
lwrist 11.0744
lhand -22.2685 1.31087
lfingers 7.12502
lthumb 4.14946 31.2502
rfemur -27.0875 -3.74452 -0.660898
rtibia 31.406
rfoot 0.382241 -18.3685
rtoes -4.42873
lfemur 6.89604 -2.21187 -24.0714
ltibia 21.1434
lfoot -5.29348 3.97606
ltoes -23.6887
380
root 1.23013 17.8327 -17.1719 6.88888 12.1991 9.17749
lowerback 11.7074 -0.0320863 5.07612
upperback 2.21612 1.11164 9.51712
thorax -4.35384 0.566277 7.08798
lowerneck -19.0792 -1.4426 7.92294
upperneck 10.1305 -0.957161 -21.3089
head 6.14189 -1.92616 -8.52727
rclavicle -7.15625e-015 4.13472e-014
rhumerus -26.2044 -34.8147 -23.0066
rradius 29.7732
rwrist -4.28784
rhand -25.3419 -0.608894
rfingers 7.12502
rthumb 1.1814 -30.5854
lclavicle -7.15625e-015 4.13472e-014
lhumerus -18.563 31.8458 17.8096
lradius 34.2964
lwrist 11.0886
lhand -22.262 1.29208
lfingers 7.12502
lthumb 4.15581 31.2313
rfemur -27.0671 -3.50413 -0.621132
rtibia 31.7829
rfoot 0.144336 -18.4849
rtoes -3.90533
lfemur 7.06751 -2.26296 -24.1049
ltibia 21.1366
lfoot -4.60721 3.79359
ltoes -23.6164
